# xmcd
#
# Track frame offsets: 
#        182
#        20647
#        39417
#        67615
#        90092
#        113855
#        136280
#        157435
#
# Disc length: 2305 seconds
#
# Revision: 3
# Processed by: cddbd v1.5.2PL0 Copyright (c) Steve Scherf et al.
# Submitted via: ExactAudioCopy v0.99pb4
#
DISCID=5e08ff08
DTITLE=Roberta Flack - Chapter Two
DYEAR=1970
DGENRE=Soul
TTITLE0=Reverend Lee
TTITLE1=Do What You Gotta Do
TTITLE2=Just Like A Woman
TTITLE3=Let It Be Me
TTITLE4=Gone Away
TTITLE5=Until It's Time For You To Go
TTITLE6=The Impossible Dream
TTITLE7=Business Goes On As Usual
EXTD=YEAR: 1970
EXTT0=
EXTT1=
EXTT2=
EXTT3=
EXTT4=
EXTT5=
EXTT6=
EXTT7=
PLAYORDER=
